<?xml version="1.0" encoding="UTF-8"?>
<svg width="380px" height="366px" viewBox="0 0 380 366" version="1.1" xmlns="http://www.w3.org/2000/svg" xmlns:xlink="http://www.w3.org/1999/xlink">
    <title>image/cybersecurity-triangle</title>
    <defs>
        <polygon id="path-1" points="-5.42474144e-13 1.9072144e-13 2.71668827 1.9072144e-13 2.71668827 14.1708147 -5.42474144e-13 14.1708147"></polygon>
        <polygon id="path-3" points="0 0 14.0376172 0 14.0376172 15.2425719 0 15.2425719"></polygon>
    </defs>
    <g id="Desktop" stroke="none" stroke-width="1" fill="none" fill-rule="evenodd">
        <g id="Pillar-Page" transform="translate(-946.000000, -13435.000000)">
            <g id="image/cybersecurity-triangle" transform="translate(946.000000, 13435.000000)">
                <polygon id="Rectangle" fill="#0F3C4F" points="0 292.88488 378.700301 292.88488 337.056282 365.591107 41.6440194 365.591107"></polygon>
                <polygon id="Rectangle-Copy-19" fill="#EF5A27" transform="translate(276.373263, 178.772544) scale(-1, 1) rotate(120.000000) translate(-276.373263, -178.772544) " points="174.98816 141.992878 377.706619 142.675033 419.922487 215.55221 132.824038 215.260325"></polygon>
                <polygon id="Rectangle-Copy-20" fill="#107F8A" transform="translate(113.870366, 160.642113) rotate(120.000000) translate(-113.870366, -160.642113) " points="-50.5012481 124.057873 236.02611 124.349177 278.241979 197.226354 -8.85647007 196.934469"></polygon>
                <g id="Group-25" transform="translate(65.805136, 101.660335)">
                    <path d="M17.8227944,46.996025 L17.8227944,34.8602828 L15.2495522,34.8602828 L15.2495522,46.996025 L17.8227944,46.996025 Z M23.2275475,46.996025 L23.2275475,41.2850875 C23.2275475,40.5933557 23.1749759,39.4367802 23.0698327,37.8153609 L23.0698327,37.8153609 L23.1445397,37.8153609 L28.4238366,46.996025 L31.6943444,46.996025 L31.6943444,34.8602828 L29.3784264,34.8602828 L29.3790617,40.7514235 C29.3845673,41.4190717 29.4258595,42.4851433 29.5029382,43.9496382 L29.5029382,43.9496382 L29.4448327,43.9496382 L24.1738366,34.8602828 L20.9282311,34.8602828 L20.9282311,46.996025 L23.2275475,46.996025 Z M39.4814218,46.996025 L39.4814218,37.0018843 L42.7768319,37.0018843 L42.7768319,34.8602828 L33.6127694,34.8602828 L33.6127694,37.0018843 L36.9081796,37.0018843 L36.9081796,46.996025 L39.4814218,46.996025 Z M51.6845148,46.996025 L51.6845148,44.871025 L47.2684992,44.871025 L47.2684992,41.7416304 L51.3773859,41.7416304 L51.3773859,39.633232 L47.2684992,39.633232 L47.2684992,36.9686812 L51.6845148,36.9686812 L51.6845148,34.8602828 L44.695257,34.8602828 L44.695257,46.996025 L51.6845148,46.996025 Z M59.3719828,47.1620406 C60.0913838,47.1620406 60.7955668,47.1108524 61.4845316,47.0084761 C62.1734964,46.9060998 62.9081156,46.727633 63.688389,46.4730757 L63.688389,46.4730757 L63.688389,40.1810836 L58.8739359,40.1810836 L58.8739359,42.3226851 L61.1732523,42.3226851 L61.1732523,44.8544234 C60.6198669,44.9651005 60.0747823,45.020439 59.5379984,45.020439 C58.5087015,45.020439 57.7242777,44.6731897 57.1847269,43.978691 C56.6451761,43.2841923 56.3754007,42.2784143 56.3754007,40.961357 C56.3754007,39.6996382 56.7101989,38.6952437 57.3797953,37.9481734 C58.0493916,37.2011031 58.9403421,36.8275679 60.0526468,36.8275679 C61.0100036,36.8275679 61.9313903,37.0489221 62.816807,37.4916304 L62.816807,37.4916304 L63.6717875,35.4330367 C62.5152119,34.9349898 61.3143656,34.6859664 60.0692484,34.6859664 C58.0825948,34.6859664 56.5289652,35.2338179 55.4083597,36.3295211 C54.2877543,37.4252242 53.7274515,38.9525679 53.7274515,40.9115523 C53.7274515,42.9258752 54.2102803,44.471204 55.1759379,45.5475386 C56.1415954,46.6238733 57.540277,47.1620406 59.3719828,47.1620406 Z M69.2010523,46.996025 L69.2010523,42.3392867 L70.5706812,42.3392867 L73.4676539,46.996025 L76.3231226,46.996025 C75.7697372,46.19915 74.5799586,44.4366174 72.7537867,41.7084273 C73.4731878,41.3929976 74.0293401,40.9572066 74.4222437,40.4010543 C74.8151474,39.8449019 75.0115992,39.2098922 75.0115992,38.496025 C75.0115992,37.2730432 74.6159286,36.3613407 73.8245875,35.7609175 C73.0332463,35.1604944 71.8130315,34.8602828 70.163943,34.8602828 L70.163943,34.8602828 L66.6278101,34.8602828 L66.6278101,46.996025 L69.2010523,46.996025 Z M70.0311305,40.2474898 L69.2010523,40.2474898 L69.2010523,36.9686812 L69.9813258,36.9686812 C70.8114039,36.9686812 71.4242782,37.090426 71.8199488,37.3339156 C72.2156194,37.5774052 72.4134547,37.9869104 72.4134547,38.5624312 C72.4134547,39.1434859 72.2197698,39.5695927 71.8324,39.8407515 C71.4450302,40.1119104 70.844607,40.2474898 70.0311305,40.2474898 L70.0311305,40.2474898 Z M80.4744578,46.996025 L80.4744578,34.8602828 L77.9012156,34.8602828 L77.9012156,46.996025 L80.4744578,46.996025 Z M88.2615352,46.996025 L88.2615352,37.0018843 L91.5569454,37.0018843 L91.5569454,34.8602828 L82.3928829,34.8602828 L82.3928829,37.0018843 L85.688293,37.0018843 L85.688293,46.996025 L88.2615352,46.996025 Z M98.5305462,46.996025 L98.5305462,42.2728804 L102.556425,34.8602828 L99.7839641,34.8602828 L97.2522259,39.8573531 L94.7370891,34.8602828 L91.9480266,34.8602828 L95.9739056,42.3558882 L95.9739056,46.996025 L98.5305462,46.996025 Z" id="INTEGRITY" fill="#FFFFFF" fill-rule="nonzero" transform="translate(58.902989, 40.924003) rotate(-60.000000) translate(-58.902989, -40.924003) "></path>
                    <g id="Group-19" transform="translate(21.606406, 107.819100) rotate(-60.000000) translate(-21.606406, -107.819100) translate(6.106406, 91.819100)">
                        <path d="M30.659844,14.1708171 C30.8470858,14.1715004 30.9992798,14.027731 31,13.8494479 C31,13.8489907 31,13.8485336 31,13.8480765 L31,4.549695 C30.9968793,3.68753589 30.4543581,2.91017557 29.6208918,2.57372323 C25.6806512,1.01305981 21.4775519,0.141300839 17.2125187,0.000274281795 C17.1203381,-0.00246853616 17.0307981,0.0297595749 16.963343,0.0896444337 C16.896128,0.150900701 16.8581995,0.23569949 16.8584385,0.324383937 L16.8584385,13.8480765 C16.8584385,14.0263596 17.0101535,14.1708171 17.1971553,14.1708171 L30.659844,14.1708171 Z" id="Fill-1" fill="#FFFFFF"></path>
                        <g id="Group-5" transform="translate(11.425161, -0.000000)">
                            <mask id="mask-2" fill="white">
                                <use xlink:href="#path-1"></use>
                            </mask>
                            <g id="Clip-4"></g>
                            <path d="M2.37773138,14.1708147 C2.56497323,14.1708147 2.71668827,14.0263596 2.71668827,13.8480765 L2.71668827,0.324383937 C2.71692719,0.236156626 2.67899871,0.151586406 2.61154364,0.0910158426 C2.54528883,0.0293024385 2.45502866,-0.00338280882 2.36236795,0.000274281795 C1.66213146,0.0297595749 0.969096577,0.0722732532 0.307988831,0.133758089 C0.133469828,0.148843588 -4.54330352e-13,0.288270168 -4.54330352e-13,0.454896359 L-4.54330352e-13,13.8480765 C-4.54330352e-13,14.0263596 0.151713906,14.1708147 0.338955751,14.1708147 C0.339435858,14.1708147 0.339915966,14.1708147 0.340156019,14.1708147 L2.37773138,14.1708147 Z" id="Fill-3" fill-opacity="0.6" fill="#FFFFFF" mask="url(#mask-2)"></path>
                        </g>
                        <path d="M22.6304575,16.7574292 C22.4432157,16.7567435 22.2910217,16.9005128 22.2903015,17.078796 C22.2900615,17.0792532 22.2900615,17.0797103 22.2900615,17.0801674 L22.2900615,29.2212511 C22.2927021,29.40022 22.4472966,29.5433037 22.6350186,29.5408221 C22.699593,29.5398751 22.7627271,29.5215897 22.8167392,29.4879902 C23.5445818,29.0335967 24.2380968,28.5309753 24.892003,27.9840117 C24.9647392,27.9222983 25.0065086,27.8340709 25.0067486,27.7412723 L25.0067486,17.0746818 C25.0067486,16.8966272 24.8550347,16.7521721 24.6680329,16.7521721 C24.6675528,16.7521721 24.6670727,16.7521721 24.6665926,16.7521721 L22.6304575,16.7574292 Z" id="Fill-6" fill-opacity="0.6" fill="#FFFFFF"></path>
                        <path d="M27.7233877,23.9200011 C27.7233877,24.0982843 27.8751016,24.2427394 28.0623435,24.2427394 C28.1797297,24.2427394 28.2889541,24.1846831 28.3506479,24.0893702 C29.7304763,21.9735147 30.59731,19.5911487 30.888015,17.1159841 C30.8990574,17.0250139 30.8685706,16.9335867 30.8039962,16.8654734 C30.7394218,16.7971315 30.6472412,16.7578177 30.5507396,16.7573606 L28.0623435,16.7573606 C27.8751016,16.7573606 27.7233877,16.9018157 27.7233877,17.0800989 L27.7233877,23.9200011 Z" id="Fill-8" fill-opacity="0.6" fill="#FFFFFF"></path>
                        <g id="Group-12" transform="translate(0.109825, 16.757428)">
                            <mask id="mask-4" fill="white">
                                <use xlink:href="#path-3"></use>
                            </mask>
                            <g id="Clip-11"></g>
                            <path d="M0.339675912,0 C0.152434067,-0.000456052629 0.000480107296,0.143770458 0,0.322053626 C0,0.334167738 0.000720160944,0.346510419 0.00216048283,0.358624532 C0.84162809,6.90733098 5.49938902,12.4405091 12.0295684,14.6464204 L13.683298,15.2265264 C13.8186883,15.2749829 13.969682,15.2100695 14.0205734,15.0811571 C14.0320959,15.052586 14.0376172,15.022415 14.0376172,14.9917869 L14.0376172,0.32525358 C14.0376172,0.147198981 13.8859033,0.00274390166 13.6986614,0.00274390166 L0.339675912,0 Z" id="Fill-10" fill="#FFFFFF" mask="url(#mask-4)"></path>
                        </g>
                        <path d="M17.1972513,16.7574292 C17.0100095,16.7574292 16.8582922,16.9018843 16.8582922,17.0801674 L16.8582922,31.7464722 C16.8575754,31.8842988 16.9742415,31.9965258 17.1187538,31.9972183 C17.150921,31.99744 17.182608,31.9919544 17.2126147,31.9812117 L18.8663443,31.4013343 C19.0372625,31.3412208 19.2024194,31.2678505 19.3678164,31.2065942 C19.4928843,31.1556235 19.5742625,31.0388252 19.5749827,30.909227 L19.5749827,17.0801674 C19.5749827,16.9018843 19.4232688,16.7574292 19.2360269,16.7574292 C19.2355468,16.7574292 19.2350667,16.7574292 19.2348267,16.7574292 L17.1972513,16.7574292 Z" id="Fill-13" fill-opacity="0.6" fill="#FFFFFF"></path>
                        <path d="M8.36966248,14.1708171 C8.55690433,14.1715004 8.70909834,14.027731 8.7098185,13.8494479 C8.71005951,13.8489907 8.71005951,13.8485336 8.71005951,13.8480765 L8.71005951,0.905632777 C8.71029861,0.809177012 8.66492847,0.717521178 8.58667098,0.656264911 C8.50865355,0.595008643 8.40615064,0.569637577 8.30676843,0.587008757 C7.57436475,0.720263996 6.89381266,0.870890416 6.24950866,1.02700247 C6.10139556,1.06243054 5.99625207,1.18814303 5.99337142,1.33374095 L5.99337142,13.841448 C5.99337142,14.0197311 6.14508533,14.1641862 6.33208712,14.1641862 C6.33256723,14.1641862 6.33304733,14.1641862 6.33352744,14.1641862 L8.36966248,14.1708171 Z" id="Fill-15" fill-opacity="0.6" fill="#FFFFFF"></path>
                        <path d="M3.27673486,2.33098384 C3.27745246,2.15270068 3.12645871,2.00778846 2.93921687,2.00686866 C2.8986478,2.00664562 2.85831879,2.01350266 2.82015026,2.02698819 C2.2601051,2.2228711 1.77423651,2.40961129 1.37934826,2.57372323 C0.545881996,2.91017557 0.00312069742,3.68753589 -1.49516696e-12,4.549695 L-1.49516696e-12,13.8480765 C-1.49516696e-12,14.0263596 0.151713906,14.1708147 0.338955751,14.1708147 C0.339435858,14.1708147 0.339915966,14.1708147 0.340396073,14.1708147 L2.93777655,14.1708147 C3.12501839,14.1708147 3.27673486,14.0263596 3.27673486,13.8480765 L3.27673486,2.33098384 Z" id="Fill-17" fill-opacity="0.6" fill="#FFFFFF"></path>
                    </g>
                </g>
                <path d="M236.838913,206.147028 L237.718796,203.258356 L242.143112,203.258356 L243.022995,206.147028 L245.795456,206.147028 L241.495651,193.961481 L238.349655,193.961481 L234.066452,206.147028 L236.838913,206.147028 Z M241.528854,201.100153 L238.366257,201.100153 C239.229538,198.305556 239.752487,196.554092 239.935104,195.845758 C239.979375,196.044977 240.052699,196.316136 240.155075,196.659235 C240.257451,197.002334 240.715378,198.48264 241.528854,201.100153 L241.528854,201.100153 Z M252.769057,206.147028 L256.894545,194.011286 L254.296401,194.011286 L251.997084,201.232965 C251.642917,202.505752 251.435398,203.396702 251.374526,203.905817 C251.341322,203.684463 251.256931,203.290176 251.121352,202.722956 C250.985772,202.155735 250.854343,201.659072 250.727065,201.232965 L250.727065,201.232965 L248.44435,194.011286 L245.846205,194.011286 L249.963393,206.147028 L252.769057,206.147028 Z M259.717755,206.147028 L260.597638,203.258356 L265.021954,203.258356 L265.901837,206.147028 L268.674298,206.147028 L264.374494,193.961481 L261.228497,193.961481 L256.945294,206.147028 L259.717755,206.147028 Z M264.407697,201.100153 L261.245099,201.100153 C262.10838,198.305556 262.631329,196.554092 262.813947,195.845758 C262.858218,196.044977 262.931541,196.316136 263.033917,196.659235 C263.136294,197.002334 263.59422,198.48264 264.407697,201.100153 L264.407697,201.100153 Z M272.825633,206.147028 L272.825633,194.011286 L270.252391,194.011286 L270.252391,206.147028 L272.825633,206.147028 Z M283.426676,206.147028 L283.426676,204.022028 L278.504312,204.022028 L278.504312,194.011286 L275.93107,194.011286 L275.93107,206.147028 L283.426676,206.147028 Z M286.830941,206.147028 L287.710823,203.258356 L292.13514,203.258356 L293.015023,206.147028 L295.787483,206.147028 L291.487679,193.961481 L288.341683,193.961481 L284.05848,206.147028 L286.830941,206.147028 Z M291.520882,201.100153 L288.358284,201.100153 C289.221566,198.305556 289.744515,196.554092 289.927132,195.845758 C289.971403,196.044977 290.044726,196.316136 290.147103,196.659235 C290.249479,197.002334 290.707405,198.48264 291.520882,201.100153 L291.520882,201.100153 Z M301.906104,206.147028 C303.2785,206.147028 304.364519,205.837132 305.16416,205.21734 C305.963802,204.597549 306.363623,203.734267 306.363623,202.627497 C306.363623,201.847223 306.193457,201.221898 305.853125,200.75152 C305.512793,200.281142 304.958024,199.960179 304.188819,199.788629 L304.188819,199.788629 L304.188819,199.705622 C304.753272,199.611546 305.205664,199.332086 305.545996,198.867243 C305.886328,198.402399 306.056494,197.80751 306.056494,197.082575 C306.056494,196.014541 305.667741,195.235651 304.890235,194.745905 C304.112728,194.256159 302.863461,194.011286 301.142432,194.011286 L301.142432,194.011286 L297.365576,194.011286 L297.365576,206.147028 L301.906104,206.147028 Z M301.432959,198.817438 L299.938819,198.817438 L299.938819,196.119684 L301.291846,196.119684 C302.027849,196.119684 302.566016,196.220677 302.906348,196.422663 C303.24668,196.624648 303.416846,196.958063 303.416846,197.422907 C303.416846,197.920954 303.260515,198.277887 302.947852,198.493707 C302.635189,198.709528 302.130225,198.817438 301.432959,198.817438 L301.432959,198.817438 Z M301.615576,204.022028 L299.938819,204.022028 L299.938819,200.85943 L301.532569,200.85943 C302.971371,200.85943 303.690772,201.363011 303.690772,202.370172 C303.690772,202.929092 303.521989,203.344131 303.184424,203.61529 C302.846859,203.886448 302.32391,204.022028 301.615576,204.022028 L301.615576,204.022028 Z M311.411443,206.147028 L311.411443,194.011286 L308.838201,194.011286 L308.838201,206.147028 L311.411443,206.147028 Z M322.012485,206.147028 L322.012485,204.022028 L317.090122,204.022028 L317.090122,194.011286 L314.51688,194.011286 L314.51688,206.147028 L322.012485,206.147028 Z M326.744875,206.147028 L326.744875,194.011286 L324.171633,194.011286 L324.171633,206.147028 L326.744875,206.147028 Z M334.531952,206.147028 L334.531952,196.152887 L337.827363,196.152887 L337.827363,194.011286 L328.6633,194.011286 L328.6633,196.152887 L331.95871,196.152887 L331.95871,206.147028 L334.531952,206.147028 Z M344.800963,206.147028 L344.800963,201.423883 L348.826842,194.011286 L346.054381,194.011286 L343.522643,199.008356 L341.007506,194.011286 L338.218444,194.011286 L342.244323,201.506891 L342.244323,206.147028 L344.800963,206.147028 Z" id="AVAILABILITY" fill="#FFFFFF" fill-rule="nonzero" transform="translate(291.446647, 200.054254) rotate(60.000000) translate(-291.446647, -200.054254) "></path>
                <path d="M141.325528,334.832308 C142.554044,334.832308 143.666348,334.624788 144.662442,334.209749 L144.662442,334.209749 L144.662442,332.051546 C143.450528,332.477653 142.418464,332.690706 141.566251,332.690706 C139.535326,332.690706 138.519864,331.337679 138.519864,328.631624 C138.519864,327.331169 138.785489,326.31709 139.316739,325.589388 C139.847989,324.861686 140.597826,324.497835 141.566251,324.497835 C142.008959,324.497835 142.459968,324.578076 142.919278,324.738558 C143.378588,324.89904 143.835131,325.087191 144.288907,325.303011 L144.288907,325.303011 L145.118985,323.211214 C143.929206,322.641227 142.744961,322.356234 141.566251,322.356234 C140.409675,322.356234 139.40113,322.609408 138.540616,323.115755 C137.680101,323.622103 137.020189,324.349805 136.560879,325.298861 C136.10157,326.247917 135.871915,327.353304 135.871915,328.615023 C135.871915,330.618278 136.339525,332.155306 137.274747,333.226107 C138.209968,334.296908 139.560228,334.832308 141.325528,334.832308 Z M152.532527,334.832308 C154.391902,334.832308 155.819637,334.292757 156.81573,333.213656 C157.811824,332.134554 158.309871,330.590609 158.309871,328.58182 C158.309871,326.567497 157.815974,325.023551 156.828181,323.949984 C155.840388,322.876416 154.414038,322.339632 152.549129,322.339632 C150.68422,322.339632 149.252335,322.872266 148.253474,323.937533 C147.254614,325.0028 146.755183,326.545361 146.755183,328.565218 C146.755183,330.585075 147.25323,332.134554 148.249324,333.213656 C149.245418,334.292757 150.673152,334.832308 152.532527,334.832308 Z M152.532527,332.674105 C151.508764,332.674105 150.739558,332.331006 150.22491,331.644808 C149.710262,330.95861 149.452937,329.937614 149.452937,328.58182 C149.452937,327.226025 149.713028,326.203646 150.233211,325.514681 C150.753393,324.825716 151.525366,324.481234 152.549129,324.481234 C154.591121,324.481234 155.612117,325.848096 155.612117,328.58182 C155.612117,331.31001 154.585587,332.674105 152.532527,332.674105 Z M163.175073,334.666292 L163.174269,328.800012 C163.167295,328.096026 163.114991,326.991232 163.017358,325.485628 L163.017358,325.485628 L163.092065,325.485628 L168.371362,334.666292 L171.64187,334.666292 L171.64187,322.53055 L169.325952,322.53055 L169.325952,328.274691 C169.325952,328.927686 169.367456,330.042757 169.450464,331.619906 L169.450464,331.619906 L169.392358,331.619906 L164.121362,322.53055 L160.875757,322.53055 L160.875757,334.666292 L163.175073,334.666292 Z M177.279045,334.666292 L177.279045,329.868441 L181.396233,329.868441 L181.396233,327.768343 L177.279045,327.768343 L177.279045,324.638949 L181.703362,324.638949 L181.703362,322.53055 L174.747307,322.53055 L174.747307,334.666292 L177.279045,334.666292 Z M186.701376,334.666292 L186.701376,322.53055 L184.128134,322.53055 L184.128134,334.666292 L186.701376,334.666292 Z M193.243337,334.666292 C195.390472,334.666292 197.032643,334.135042 198.16985,333.072542 C199.307057,332.010042 199.875661,330.479932 199.875661,328.48221 C199.875661,326.606234 199.327809,325.145296 198.232106,324.099398 C197.136403,323.053499 195.597992,322.53055 193.616872,322.53055 L193.616872,322.53055 L189.806813,322.53055 L189.806813,334.666292 L193.243337,334.666292 Z M193.484059,332.541292 L192.380055,332.541292 L192.380055,324.638949 L193.749684,324.638949 C196.051768,324.638949 197.202809,325.942171 197.202809,328.548617 C197.202809,331.2104 195.963226,332.541292 193.484059,332.541292 L193.484059,332.541292 Z M209.430805,334.666292 L209.430805,332.541292 L205.014789,332.541292 L205.014789,329.411898 L209.123676,329.411898 L209.123676,327.303499 L205.014789,327.303499 L205.014789,324.638949 L209.430805,324.638949 L209.430805,322.53055 L202.441547,322.53055 L202.441547,334.666292 L209.430805,334.666292 Z M214.312609,334.666292 L214.312609,328.955355 C214.312609,328.263623 214.260037,327.107048 214.154894,325.485628 L214.154894,325.485628 L214.229601,325.485628 L219.508898,334.666292 L222.779405,334.666292 L222.779405,322.53055 L220.463487,322.53055 L220.463487,328.274691 C220.463487,328.927686 220.504991,330.042757 220.587999,331.619906 L220.587999,331.619906 L220.529894,331.619906 L215.258898,322.53055 L212.013292,322.53055 L212.013292,334.666292 L214.312609,334.666292 Z M230.566483,334.666292 L230.566483,324.672152 L233.861893,324.672152 L233.861893,322.53055 L224.69783,322.53055 L224.69783,324.672152 L227.993241,324.672152 L227.993241,334.666292 L230.566483,334.666292 Z M238.35356,334.666292 L238.35356,322.53055 L235.780318,322.53055 L235.780318,334.666292 L238.35356,334.666292 Z M242.704114,334.666292 L243.583997,331.777621 L248.008313,331.777621 L248.888196,334.666292 L251.660657,334.666292 L247.360852,322.480746 L244.214856,322.480746 L239.931653,334.666292 L242.704114,334.666292 Z M247.394056,329.619417 L244.231458,329.619417 C245.094739,326.824821 245.617688,325.073356 245.800306,324.365023 C245.844576,324.564242 245.9179,324.8354 246.020276,325.178499 C246.122653,325.521598 246.580579,327.001904 247.394056,329.619417 L247.394056,329.619417 Z M260.734356,334.666292 L260.734356,332.541292 L255.811992,332.541292 L255.811992,322.53055 L253.23875,322.53055 L253.23875,334.666292 L260.734356,334.666292 Z M265.466745,334.666292 L265.466745,322.53055 L262.893503,322.53055 L262.893503,334.666292 L265.466745,334.666292 Z M273.253823,334.666292 L273.253823,324.672152 L276.549233,324.672152 L276.549233,322.53055 L267.38517,322.53055 L267.38517,324.672152 L270.680581,324.672152 L270.680581,334.666292 L273.253823,334.666292 Z M283.522834,334.666292 L283.522834,329.943148 L287.548713,322.53055 L284.776252,322.53055 L282.244513,327.527621 L279.729377,322.53055 L276.940314,322.53055 L280.966193,330.026156 L280.966193,334.666292 L283.522834,334.666292 Z" id="CONFIDENTIALITY" fill="#FFFFFF" fill-rule="nonzero"></path>
                <g id="Group" transform="translate(244.500000, 125.500000) rotate(60.000000) translate(-244.500000, -125.500000) translate(228.000000, 109.000000)" fill="#FFFFFF" fill-rule="nonzero">
                    <g transform="translate(14.437500, 14.437500)" opacity="0.6">
                        <path d="M9.28125,18.5625 C4.15535717,18.5625 0,14.4071428 0,9.28125 C0,4.15535717 4.15535717,0 9.28125,0 C14.4071428,0 18.5625,4.15535717 18.5625,9.28125 C18.5549276,14.4040029 14.4040029,18.5549276 9.28125,18.5625 Z M9.28125,2.75 C5.67414023,2.75 2.75,5.67414023 2.75,9.28125 C2.75,12.8883598 5.67414023,15.8125 9.28125,15.8125 C12.8883598,15.8125 15.8125,12.8883598 15.8125,9.28125 C15.8125,7.5490548 15.1243881,5.88780581 13.8995412,4.66295884 C12.6746942,3.43811186 11.0134452,2.75 9.28125,2.75 Z" id="Shape"></path>
                        <path d="M12.03125,10.65625 L9.28125,10.65625 C8.52185847,10.65625 7.90625,10.0406415 7.90625,9.28125 L7.90625,5.84375 C7.90625,5.08435847 8.52185847,4.46875 9.28125,4.46875 C10.0406415,4.46875 10.65625,5.08435847 10.65625,5.84375 L10.65625,7.5625 C10.65625,7.75234788 10.8101521,7.90625 11,7.90625 L12.03125,7.90625 C12.7906415,7.90625 13.40625,8.52185847 13.40625,9.28125 C13.40625,10.0406415 12.7906415,10.65625 12.03125,10.65625 Z" id="Path"></path>
                    </g>
                    <path d="M12.71875,26.4275 C12.5490887,25.845691 12.0185114,25.4435693 11.4125,25.4375 L4.125,25.4375 C3.36560847,25.4375 2.75,24.8218915 2.75,24.0625 L2.75,7.21875 C2.75,7.02890212 2.90390212,6.875 3.09375,6.875 L29.90625,6.875 C30.0960979,6.875 30.25,7.02890212 30.25,7.21875 L30.25,13.75 C30.255243,14.1707166 30.4528226,14.5658756 30.78625,14.8225 C31.1891793,15.1341903 31.7314136,15.1975707 32.1953645,14.9872079 C32.6593153,14.7768451 32.9689431,14.3272167 33,13.81875 L33,4.125 C33,1.84682541 31.1531746,1.8334545e-13 28.875,1.8334545e-13 L4.125,1.8334545e-13 C1.84682541,1.8334545e-13 -3.65555374e-12,1.84682541 -3.65555374e-12,4.125 L-3.65555374e-12,24.0625 C-3.65555374e-12,26.3406746 1.84682541,28.1875 4.125,28.1875 L11.4125,28.1875 C11.8333482,28.179838 12.2275035,27.9798362 12.4821938,27.6447173 C12.7368842,27.3095984 12.8240492,26.876284 12.71875,26.46875 L12.71875,26.4275 Z M13.26875,2.75 C13.5194665,2.34545172 13.9615608,2.0993262 14.4375,2.0993262 C14.9134392,2.0993262 15.3555335,2.34545172 15.60625,2.75 C15.8806471,3.16726402 15.8806471,3.70773598 15.60625,4.125 C15.3555335,4.52954828 14.9134392,4.7756738 14.4375,4.7756738 C13.9615608,4.7756738 13.5194665,4.52954828 13.26875,4.125 C12.9943529,3.70773598 12.9943529,3.16726402 13.26875,2.75 Z M8.45625,2.75 C8.70696651,2.34545172 9.14906085,2.0993262 9.625,2.0993262 C10.1009392,2.0993262 10.5430335,2.34545172 10.79375,2.75 C11.0681471,3.16726402 11.0681471,3.70773598 10.79375,4.125 C10.5430335,4.52954828 10.1009392,4.7756738 9.625,4.7756738 C9.14906085,4.7756738 8.70696651,4.52954828 8.45625,4.125 C8.18185294,3.70773598 8.18185294,3.16726402 8.45625,2.75 L8.45625,2.75 Z M3.56125,2.87375 C3.77765644,2.41575811 4.22834775,2.11384108 4.73423223,2.08797198 C5.24011671,2.06210289 5.71925446,2.31647185 5.98125,2.75 C6.25564706,3.16726402 6.25564706,3.70773598 5.98125,4.125 C5.73053349,4.52954828 5.28843915,4.7756738 4.8125,4.7756738 C4.33656085,4.7756738 3.89446651,4.52954828 3.64375,4.125 C3.51534335,3.91813598 3.44416822,3.68088555 3.4375,3.4375 C3.44285226,3.24346362 3.48483954,3.05218824 3.56125,2.87375 L3.56125,2.87375 Z" id="Shape"></path>
                </g>
                <g id="Group" transform="translate(92.000000, 314.000000)" fill="#FFFFFF" fill-rule="nonzero">
                    <path d="M12.9571616,29.5625 C13.1456768,29.5625 13.2984986,29.4085979 13.2984986,29.21875 L13.2984986,25.09375 C13.3024048,25.001432 13.2676987,24.9116935 13.2028194,24.8463556 C13.1379401,24.7810176 13.0488315,24.7460661 12.9571616,24.75 C7.04520494,24.75 2.70339845,23.16875 0.546148689,21.43625 C0.439169381,21.3624339 0.298137528,21.3624339 0.191158221,21.43625 C0.073860084,21.490389 -0.000970364032,21.608811 0,21.73875 L0,24.0625 C0,27.2525 6.15772877,29.5625 12.9571616,29.5625 Z" id="Path"></path>
                    <path d="M15.018837,18.49375 C14.336163,18.49375 13.653489,18.5625 12.970815,18.5625 C8.17844374,18.5625 3.19492371,17.42125 0.546148689,15.24875 C0.438066647,15.1786111 0.299240263,15.1786111 0.191158221,15.24875 C0.073860084,15.302889 -0.000970364032,15.421311 0,15.55125 L0,17.875 C0,21.065 6.15772877,23.375 12.9571616,23.375 C13.1456768,23.375 13.2984986,23.2210979 13.2984986,23.03125 L13.2984986,22 C13.3031068,20.8350521 14.0360838,19.7994266 15.1280648,19.415 C15.2591096,19.3707863 15.3507484,19.2513565 15.360174,19.1125 C15.3541313,19.0347022 15.3541313,18.9565478 15.360174,18.87875 C15.378139,18.7791629 15.3476852,18.6769326 15.2782531,18.60375 C15.2126192,18.5296445 15.1173386,18.4892427 15.018837,18.49375 Z" id="Path"></path>
                    <path d="M25.1360653,13.09 C25.2991726,13.1654795 25.4925626,13.1064623 25.5866301,12.9525 C25.8078924,12.567258 25.929928,12.132387 25.9416227,11.6875 L25.9416227,9.33625 C25.9420947,9.19913278 25.8616074,9.07484639 25.7368184,9.02 C25.6277951,8.95315954 25.4908512,8.95315954 25.3818279,9.02 C22.6920925,11.23375 17.7495329,12.375 12.970815,12.375 C8.19209722,12.375 3.19492371,11.23375 0.546148689,9.06125 C0.438066647,8.99111109 0.299240263,8.99111109 0.191158221,9.06125 C0.073860084,9.11538905 -0.000970364032,9.23381104 0,9.36375 L0,11.6875 C0,14.72625 5.8027383,17.1875 12.970815,17.1875 C13.8446377,17.1875 14.6911535,17.1875 15.5240157,17.0775 C15.6533821,17.0651103 15.7645405,16.9798194 15.8107388,16.8575 C16.7991268,14.1758765 19.3329844,12.3907326 22.1732602,12.375 C23.2022038,12.3816677 24.2158741,12.626292 25.1360653,13.09 Z" id="Path"></path>
                    <ellipse id="Oval" cx="12.970815" cy="5.5" rx="12.9708055" ry="5.5"></ellipse>
                    <path d="M27.2523546,21.32625 C27.0850796,21.3059808 26.9575108,21.1658311 26.9519781,20.99625 L26.9519781,19.62125 C26.951978,16.9633797 24.8124732,14.8087501 22.1732602,14.8087501 C19.5340473,14.8087501 17.3945425,16.9633797 17.3945424,19.62125 L17.3945424,20.99625 C17.3958447,21.1635394 17.2726372,21.3053433 17.1078193,21.32625 C16.0981071,21.4759948 15.3491486,22.3471864 15.3465205,23.375 L15.3465205,30.9375 C15.3465205,32.0765873 16.2634511,33 17.3945424,33 L26.9519781,33 C28.0830694,33 29,32.0765873 29,30.9375 L29,23.375 C28.9983978,22.3516714 28.2566444,21.4821202 27.2523546,21.32625 L27.2523546,21.32625 Z M20.8079123,27.84375 C20.8079123,27.0843585 21.4191994,26.46875 22.1732602,26.46875 C22.9273211,26.46875 23.5386082,27.0843585 23.5386082,27.84375 C23.5386082,28.6031415 22.9273211,29.21875 22.1732602,29.21875 C21.4191994,29.21875 20.8079123,28.6031415 20.8079123,27.84375 Z M20.1252383,19.59375 C20.1252383,18.4546627 21.042169,17.53125 22.1732602,17.53125 C23.3043515,17.53125 24.2212822,18.4546627 24.2212822,19.59375 L24.2212822,20.96875 C24.2212822,21.1585979 24.0684604,21.3125 23.8799452,21.3125 L20.4665753,21.3125 C20.2780601,21.3125 20.1252383,21.1585979 20.1252383,20.96875 L20.1252383,19.59375 Z" id="Shape" opacity="0.6"></path>
                </g>
                <path d="M131.764824,254.231127 L131.764824,242.095385 L129.191582,242.095385 L129.191582,254.231127 L131.764824,254.231127 Z M137.169578,254.231127 L137.169578,248.52019 C137.169578,247.828458 137.117006,246.671883 137.011863,245.050463 L137.011863,245.050463 L137.08657,245.050463 L142.365867,254.231127 L145.636374,254.231127 L145.636374,242.095385 L143.320457,242.095385 L143.320457,247.839526 C143.320457,248.492521 143.36196,249.607592 143.444968,251.184741 L143.444968,251.184741 L143.386863,251.184741 L138.115867,242.095385 L134.870261,242.095385 L134.870261,254.231127 L137.169578,254.231127 Z M151.27355,254.231127 L151.27355,249.433276 L155.390737,249.433276 L155.390737,247.333178 L151.27355,247.333178 L151.27355,244.203784 L155.697866,244.203784 L155.697866,242.095385 L148.741811,242.095385 L148.741811,254.231127 L151.27355,254.231127 Z M163.360432,254.397143 C165.219807,254.397143 166.647541,253.857592 167.643635,252.778491 C168.639728,251.699389 169.137775,250.155444 169.137775,248.146655 C169.137775,246.132332 168.643879,244.588386 167.656086,243.514819 C166.668293,242.441251 165.241942,241.904467 163.377033,241.904467 C161.512124,241.904467 160.08024,242.437101 159.081379,243.502368 C158.082518,244.567634 157.583088,246.110196 157.583088,248.130053 C157.583088,250.14991 158.081135,251.699389 159.077228,252.778491 C160.073322,253.857592 161.501057,254.397143 163.360432,254.397143 Z M163.360432,252.23894 C162.336669,252.23894 161.567463,251.895841 161.052814,251.209643 C160.538166,250.523445 160.280842,249.502449 160.280842,248.146655 C160.280842,246.79086 160.540933,245.768481 161.061115,245.079516 C161.581297,244.390551 162.35327,244.046069 163.377033,244.046069 C165.419025,244.046069 166.440021,245.412931 166.440021,248.146655 C166.440021,250.874845 165.413491,252.23894 163.360432,252.23894 Z M174.276903,254.231127 L174.276903,249.574389 L175.646532,249.574389 L178.543505,254.231127 L181.398974,254.231127 C180.845588,253.434252 179.65581,251.67172 177.829638,248.94353 C178.549039,248.6281 179.105191,248.192309 179.498095,247.636157 C179.890999,247.080004 180.08745,246.444994 180.08745,245.731127 C180.08745,244.508146 179.69178,243.596443 178.900439,242.99602 C178.109097,242.395597 176.888883,242.095385 175.239794,242.095385 L175.239794,242.095385 L171.703661,242.095385 L171.703661,254.231127 L174.276903,254.231127 Z M175.106982,247.482592 L174.276903,247.482592 L174.276903,244.203784 L175.057177,244.203784 C175.887255,244.203784 176.500129,244.325528 176.8958,244.569018 C177.291471,244.812508 177.489306,245.222013 177.489306,245.797534 C177.489306,246.378588 177.295621,246.804695 176.908251,247.075854 C176.520881,247.347013 175.920458,247.482592 175.106982,247.482592 L175.106982,247.482592 Z M185.276383,254.231127 L185.276383,248.586596 C185.276383,247.939135 185.223812,246.64698 185.118668,244.710131 L185.118668,244.710131 L185.193375,244.710131 L188.11525,254.231127 L190.472672,254.231127 L193.602067,244.726733 L193.676774,244.726733 C193.610368,246.254077 193.573014,247.194832 193.564713,247.548998 C193.556412,247.903165 193.552262,248.215828 193.552262,248.486987 L193.552262,248.486987 L193.552262,254.231127 L195.951188,254.231127 L195.951188,242.095385 L192.448258,242.095385 L189.401871,251.375659 L189.352067,251.375659 L186.479996,242.095385 L182.977067,242.095385 L182.977067,254.231127 L185.276383,254.231127 Z M200.301742,254.231127 L201.181625,251.342455 L205.605941,251.342455 L206.485824,254.231127 L209.258285,254.231127 L204.95848,242.04558 L201.812484,242.04558 L197.529281,254.231127 L200.301742,254.231127 Z M204.991683,249.184252 L201.829086,249.184252 C202.692367,246.389656 203.215316,244.638191 203.397933,243.929858 C203.442204,244.129077 203.515528,244.400235 203.617904,244.743334 C203.630189,244.784506 203.647594,244.842054 203.670119,244.915977 L203.721996,245.085659 C203.917673,245.724044 204.340902,247.090242 204.991683,249.184252 L204.991683,249.184252 Z M215.518018,254.231127 L215.518018,244.236987 L218.813429,244.236987 L218.813429,242.095385 L209.649366,242.095385 L209.649366,244.236987 L212.944776,244.236987 L212.944776,254.231127 L215.518018,254.231127 Z M223.305096,254.231127 L223.305096,242.095385 L220.731854,242.095385 L220.731854,254.231127 L223.305096,254.231127 Z M231.648325,254.397143 C233.5077,254.397143 234.935435,253.857592 235.931529,252.778491 C236.927622,251.699389 237.425669,250.155444 237.425669,248.146655 C237.425669,246.132332 236.931773,244.588386 235.94398,243.514819 C234.956187,242.441251 233.529836,241.904467 231.664927,241.904467 C229.800018,241.904467 228.368133,242.437101 227.369273,243.502368 C226.370412,244.567634 225.870982,246.110196 225.870982,248.130053 C225.870982,250.14991 226.369029,251.699389 227.365122,252.778491 C228.361216,253.857592 229.78895,254.397143 231.648325,254.397143 Z M231.648325,252.23894 C230.624562,252.23894 229.855357,251.895841 229.340708,251.209643 C228.82606,250.523445 228.568736,249.502449 228.568736,248.146655 C228.568736,246.79086 228.828827,245.768481 229.349009,245.079516 C229.869191,244.390551 230.641164,244.046069 231.664927,244.046069 C233.706919,244.046069 234.727915,245.412931 234.727915,248.146655 C234.727915,250.874845 233.701385,252.23894 231.648325,252.23894 Z M242.290872,254.231127 L242.290067,248.364847 C242.283093,247.660861 242.23079,246.556067 242.133157,245.050463 L242.133157,245.050463 L242.207864,245.050463 L247.487161,254.231127 L250.757669,254.231127 L250.757669,242.095385 L248.441751,242.095385 L248.441751,247.839526 C248.441751,248.492521 248.483254,249.607592 248.566262,251.184741 L248.566262,251.184741 L248.508157,251.184741 L243.237161,242.095385 L239.991555,242.095385 L239.991555,254.231127 L242.290872,254.231127 Z M154.078741,274.397143 C155.48434,274.397143 156.581427,274.081713 157.370001,273.450854 C158.158575,272.819994 158.552862,271.956713 158.552862,270.86101 C158.552862,270.069669 158.342576,269.401456 157.922003,268.856371 C157.50143,268.311287 156.723924,267.767586 155.589483,267.225268 C154.731736,266.815763 154.188035,266.532153 153.95838,266.374438 C153.728725,266.216723 153.561326,266.053474 153.456183,265.884692 C153.351039,265.715909 153.298468,265.518074 153.298468,265.291186 C153.298468,264.925952 153.428513,264.62989 153.688605,264.403002 C153.948696,264.176114 154.322231,264.06267 154.80921,264.06267 C155.218715,264.06267 155.635138,264.115242 156.058478,264.220385 C156.481817,264.325528 157.017218,264.510912 157.664679,264.776537 L157.664679,264.776537 L158.494757,262.776049 C157.869431,262.50489 157.270392,262.294604 156.697638,262.14519 C156.124884,261.995776 155.523077,261.921069 154.892218,261.921069 C153.608364,261.921069 152.602586,262.228198 151.874884,262.842455 C151.147182,263.456713 150.783331,264.300626 150.783331,265.374194 C150.783331,265.944181 150.894008,266.442228 151.115362,266.868334 C151.336717,267.294441 151.632778,267.667976 152.003546,267.98894 C152.374314,268.309903 152.930467,268.644702 153.672003,268.993334 C154.463344,269.369636 154.987677,269.643562 155.245001,269.815112 C155.502325,269.986661 155.697394,270.165128 155.830206,270.350512 C155.963019,270.535896 156.029425,270.747566 156.029425,270.985522 C156.029425,271.411629 155.878627,271.732592 155.577032,271.948412 C155.275437,272.164233 154.842413,272.272143 154.27796,272.272143 C153.807582,272.272143 153.288784,272.197436 152.721564,272.048022 C152.154343,271.898608 151.461228,271.641284 150.642218,271.276049 L150.642218,271.276049 L150.642218,273.666674 C151.638312,274.153653 152.783819,274.397143 154.078741,274.397143 Z M167.792576,274.231127 L167.792576,272.106127 L163.376561,272.106127 L163.376561,268.976733 L167.485448,268.976733 L167.485448,266.868334 L163.376561,266.868334 L163.376561,264.203784 L167.792576,264.203784 L167.792576,262.095385 L160.803319,262.095385 L160.803319,274.231127 L167.792576,274.231127 Z M175.289127,274.397143 C176.517642,274.397143 177.629947,274.189623 178.626041,273.774584 L178.626041,273.774584 L178.626041,271.616381 C177.414127,272.042488 176.382063,272.255541 175.529849,272.255541 C173.498925,272.255541 172.483462,270.902514 172.483462,268.196459 C172.483462,266.896004 172.749087,265.881925 173.280337,265.154223 C173.811587,264.426521 174.561425,264.06267 175.529849,264.06267 C175.972557,264.06267 176.423567,264.142911 176.882877,264.303393 C177.342186,264.463875 177.798729,264.652026 178.252505,264.867846 L178.252505,264.867846 L179.082584,262.776049 C177.892805,262.206062 176.70856,261.921069 175.529849,261.921069 C174.373274,261.921069 173.364729,262.174243 172.504214,262.68059 C171.6437,263.186938 170.983788,263.91464 170.524478,264.863696 C170.065168,265.812752 169.835513,266.918139 169.835513,268.179858 C169.835513,270.183113 170.303124,271.720141 171.238345,272.790942 C172.173567,273.861743 173.523827,274.397143 175.289127,274.397143 Z M186.105989,274.397143 C187.14082,274.397143 188.037304,274.217293 188.795442,273.857592 C189.55358,273.497892 190.133251,272.980476 190.534456,272.305346 C190.93566,271.630216 191.136262,270.844409 191.136262,269.947924 L191.136262,269.947924 L191.136262,262.095385 L188.571321,262.095385 L188.571321,269.507983 C188.571321,270.448738 188.381787,271.139086 188.002718,271.579028 C187.623649,272.018969 187.013541,272.23894 186.172395,272.23894 C185.30358,272.23894 184.681022,272.020353 184.30472,271.583178 C183.928417,271.146004 183.740266,270.459806 183.740266,269.524584 L183.740266,269.524584 L183.740266,262.095385 L181.175325,262.095385 L181.175325,269.914721 C181.175325,271.303718 181.606966,272.398038 182.470247,273.19768 C183.333528,273.997322 184.545442,274.397143 186.105989,274.397143 Z M196.731934,274.231127 L196.731934,269.574389 L198.101562,269.574389 L200.998535,274.231127 L203.854004,274.231127 C203.300618,273.434252 202.11084,271.67172 200.284668,268.94353 C201.004069,268.6281 201.560221,268.192309 201.953125,267.636157 C202.346029,267.080004 202.54248,266.444994 202.54248,265.731127 C202.54248,264.508146 202.14681,263.596443 201.355469,262.99602 C200.564128,262.395597 199.343913,262.095385 197.694824,262.095385 L197.694824,262.095385 L194.158691,262.095385 L194.158691,274.231127 L196.731934,274.231127 Z M197.562012,267.482592 L196.731934,267.482592 L196.731934,264.203784 L197.512207,264.203784 C198.342285,264.203784 198.95516,264.325528 199.35083,264.569018 C199.746501,264.812508 199.944336,265.222013 199.944336,265.797534 C199.944336,266.378588 199.750651,266.804695 199.363281,267.075854 C198.975911,267.347013 198.375488,267.482592 197.562012,267.482592 L197.562012,267.482592 Z M208.005339,274.231127 L208.005339,262.095385 L205.432097,262.095385 L205.432097,274.231127 L208.005339,274.231127 Z M215.792416,274.231127 L215.792416,264.236987 L219.087827,264.236987 L219.087827,262.095385 L209.923764,262.095385 L209.923764,264.236987 L213.219174,264.236987 L213.219174,274.231127 L215.792416,274.231127 Z M226.061427,274.231127 L226.061427,269.507983 L230.087306,262.095385 L227.314845,262.095385 L224.783107,267.092455 L222.26797,262.095385 L219.478908,262.095385 L223.504787,269.590991 L223.504787,274.231127 L226.061427,274.231127 Z" id="INFORMATIONSECURITY" fill="#000000" fill-rule="nonzero"></path>
                <g id="Group" transform="translate(169.000000, 182.231127)" fill-rule="nonzero">
                    <path d="M15.7499211,22.5927751 C15.853025,22.4393208 15.853025,22.2387367 15.7499211,22.0852823 C14.7684826,20.3227189 14.7684826,18.1779262 15.7499211,16.4153627 C15.8636801,16.2653232 15.8636801,16.0579095 15.7499211,15.9078699 L13.0724346,13.1779086 C12.9796982,13.0872084 12.8514937,13.0423373 12.7224363,13.0554104 C12.5949336,13.0579724 12.4769731,13.1235053 12.4074379,13.2304079 C9.87796153,16.8451238 9.87796153,21.6555212 12.4074379,25.2702372 C12.4769731,25.3771397 12.5949336,25.4426727 12.7224363,25.4452347 C12.8514937,25.4583078 12.9796982,25.4134367 13.0724346,25.3227364 L15.7499211,22.5927751 Z" id="Path" fill="#107F8A"></path>
                    <ellipse id="Oval" fill="#107F8A" cx="20.9998949" cy="19.2503225" rx="3.23748379" ry="3.2374541"></ellipse>
                    <path d="M17.6574116,14.000397 C17.8108674,14.1034999 18.0114533,14.1034999 18.1649091,14.000397 C19.9274887,13.0189674 22.072301,13.0189674 23.8348807,14.000397 C23.9883365,14.1034999 24.1889223,14.1034999 24.3423781,14.000397 L27.0723645,11.2704357 C27.1630655,11.1777001 27.2079371,11.0494968 27.1948638,10.9204406 C27.1923018,10.7929391 27.1267682,10.6749797 27.0198647,10.6054451 C23.4051156,8.07599194 18.5946741,8.07599194 14.979925,10.6054451 C14.8730215,10.6749797 14.8074879,10.7929391 14.8049259,10.9204406 C14.7918527,11.0494968 14.8367242,11.1777001 14.9274253,11.2704357 L17.6574116,14.000397 Z" id="Path" fill="#107F8A"></path>
                    <path d="M26.2498686,15.9078699 C26.1082451,16.0372114 26.0722358,16.2460636 26.162369,16.4153627 C26.6361952,17.2842039 26.8773306,18.2607932 26.8623655,19.2503225 C26.8579078,20.2551696 26.5990271,21.2425196 26.1098693,22.1202818 C26.004693,22.2537123 26.004693,22.4418449 26.1098693,22.5752754 L28.8573555,25.3227364 C28.9482945,25.4178083 29.075934,25.4688637 29.2073538,25.4627345 C29.3341126,25.4439381 29.4478005,25.3744627 29.5223522,25.2702372 C32.0518285,21.6555212 32.0518285,16.8451238 29.5223522,13.2304079 C29.4528169,13.1235053 29.3348565,13.0579724 29.2073538,13.0554104 C29.0782964,13.0423373 28.9500919,13.0872084 28.8573555,13.1779086 L26.2498686,15.9078699 Z" id="Path" fill="#107F8A"></path>
                    <path d="M24.3423781,24.5002481 C24.2130355,24.3586259 24.0041814,24.3226169 23.8348807,24.4127493 C22.072301,25.3941789 19.9274887,25.3941789 18.1649091,24.4127493 C17.9956083,24.3226169 17.7867543,24.3586259 17.6574116,24.5002481 L14.9274253,27.1777101 C14.8387473,27.2716888 14.7942094,27.3989387 14.8049259,27.5277052 C14.8042457,27.6560596 14.8705845,27.7754683 14.979925,27.8427007 C18.5946741,30.3721539 23.4051156,30.3721539 27.0198647,27.8427007 C27.1292052,27.7754683 27.195544,27.6560596 27.1948638,27.5277052 C27.2055803,27.3989387 27.1610424,27.2716888 27.0723645,27.1777101 L24.3423781,24.5002481 Z" id="Path" fill="#107F8A"></path>
                    <path d="M37.6248116,0.000595439352 L4.3749781,0.000595439352 C2.00398779,-0.0384454659 0.0478759832,1.84722902 0,4.21803565 L0,34.2826094 C0.0153407114,35.8823182 0.938161673,37.3343908 2.37998808,38.0275563 C2.55908307,38.1115544 2.65953222,38.305276 2.62498686,38.5000496 L2.62498686,40.2500248 C2.62498686,41.2165094 3.40848462,42 4.3749781,42 C5.34147157,42 6.12496933,41.2165094 6.12496933,40.2500248 L6.12496933,38.9375434 C6.12496933,38.6959223 6.32084378,38.5000496 6.56246714,38.5000496 L35.4373226,38.5000496 C35.6789459,38.5000496 35.8748204,38.6959223 35.8748204,38.9375434 L35.8748204,40.2500248 C35.8748204,41.2165094 36.6583182,42 37.6248116,42 C38.5913051,42 39.3748029,41.2165094 39.3748029,40.2500248 L39.3748029,38.5000496 C39.3710719,38.3296098 39.466689,38.172526 39.6198016,38.0975553 C41.0843668,37.3934164 42.0113073,35.9075989 41.9998958,34.2826094 L41.9998958,4.21803565 C41.9519137,1.84722902 39.9958019,-0.0384454659 37.6248116,0.000595439352 Z M34.9998248,19.2503225 C34.9998248,26.9821994 28.7318426,33.250124 20.9998949,33.250124 C13.2679471,33.250124 6.99996495,26.9821994 6.99996495,19.2503225 C6.99996495,11.5184456 13.2679471,5.25052101 20.9998949,5.25052101 C24.7129071,5.25052101 28.2738441,6.72549586 30.8993402,9.35096794 C33.5248364,11.97644 34.9998248,15.5373443 34.9998248,19.2503225 Z" id="Shape" fill="#0F3C4F"></path>
                </g>
            </g>
        </g>
    </g>
</svg>